<svg width="24" height="24" viewBox="0 0 24 24" fill="none" xmlns="http://www.w3.org/2000/svg">
<path d="M8.38401 2.47911L7.52361 2.73831C6.7575 2.96935 6.07334 3.41442 5.55164 4.02116C5.02994 4.62789 4.69242 5.37103 4.57881 6.16311C4.22241 8.64471 5.01921 11.5463 6.94041 14.8739C8.85681 18.1931 10.9664 20.3315 13.2884 21.2675C14.0345 21.5682 14.8512 21.6483 15.6415 21.4984C16.4318 21.3484 17.1624 20.9746 17.7464 20.4215L18.3968 19.8047C18.8191 19.405 19.082 18.8655 19.1365 18.2866C19.191 17.7077 19.0335 17.1286 18.6932 16.6571L17.066 14.4011C16.846 14.0965 16.5362 13.8685 16.1801 13.7488C15.8239 13.6292 15.4393 13.6239 15.08 13.7339L12.6188 14.4863L12.5552 14.4983C12.284 14.5379 11.6576 13.9511 10.8776 12.5999C10.0616 11.1863 9.89361 10.3595 10.118 10.1459L11.3696 8.97831C11.8268 8.55136 12.1392 7.99215 12.2629 7.37893C12.3866 6.76571 12.3155 6.12915 12.0596 5.55831L11.2652 3.79311C11.0263 3.26192 10.6024 2.83573 10.0726 2.59397C9.54268 2.35221 8.94177 2.31139 8.38401 2.47911ZM10.1732 4.28511L10.9652 6.05031C11.1189 6.39269 11.1617 6.77456 11.0877 7.14248C11.0137 7.51041 10.8265 7.846 10.5524 8.10231L9.29721 9.27111C8.49321 10.0319 8.75961 11.3303 9.83961 13.1999C10.8548 14.9591 11.7812 15.8279 12.7772 15.6767L12.926 15.6455L15.4316 14.8811C15.5514 14.8443 15.6797 14.846 15.7985 14.8858C15.9172 14.9256 16.0206 15.0016 16.094 15.1031L17.7212 17.3591C17.8916 17.5949 17.9706 17.8845 17.9434 18.1741C17.9163 18.4637 17.7848 18.7335 17.5736 18.9335L16.922 19.5503C16.5048 19.9451 15.9831 20.2119 15.4187 20.3189C14.8544 20.4259 14.2712 20.3686 13.7384 20.1539C11.7008 19.3331 9.77481 17.3807 7.98081 14.2739C6.18201 11.1599 5.45361 8.51151 5.76681 6.33351C5.84788 5.76763 6.08895 5.23669 6.46163 4.80321C6.83431 4.36972 7.32309 4.05175 7.87041 3.88671L8.73081 3.62751C9.00976 3.54369 9.30967 3.56419 9.57463 3.68518C9.83958 3.80618 10.0515 4.01941 10.1708 4.28511" fill="#6B6B6B"/>
</svg>
