<svg width="24" height="24" viewBox="0 0 24 24" fill="none" xmlns="http://www.w3.org/2000/svg">
<path d="M22.505 15.5029V22.5049H21.505V23.5049H3.5V22.5049H2.5V15.5029H9.502V17.5029H15.503V15.5029H22.505Z" fill="#6B6B6B"/>
<path d="M14.5039 15.5029H10.5039V16.5029H14.5039V15.5029ZM14.5039 13.5029H10.5039V14.5029H14.5039V13.5029Z" fill="#6B6B6B"/>
<path d="M22.505 5.5V4.5H16.503V2.5H15.503V1.5H9.502V2.5H8.502V4.5H2.5V5.5H1.5V13.503H2.5V14.503H9.502V12.503H15.503V14.503H22.505V13.503H23.505V5.5H22.505ZM10.502 3.5H14.503V4.5H10.502V3.5Z" fill="#6B6B6B"/>
</svg>
